<svg viewBox="0 0 219.67 44.22" xmlns="http://www.w3.org/2000/svg" xmlns:xlink="http://www.w3.org/1999/xlink" id="Calque_1" overflow="hidden">
<defs></defs><g><g><path d="M36.55 0.16C38.94 0.16 40.86 2.08 40.86 4.47 40.86 6.86 38.94 8.84 36.55 8.84 34.16 8.84 32.24 6.92 32.24 4.47 32.24 2.02 34.15 0.16 36.55 0.16ZM32.96 13.57 40.14 13.57 40.14 43.92 32.96 43.92 32.96 13.57Z" class="MsftOfcThm_Background1_Fill_v2" stroke-width="0" fill="#000000"></path><path d="M55.41 18.77C57.03 15.24 60.32 13.2 64.75 13.2 70.74 13.2 74.57 16.97 74.57 23.74L74.57 43.92 67.39 43.92 67.39 25.24C67.39 21.17 65.23 19.19 62.06 19.19 58.59 19.19 55.42 21.94 55.42 27.63L55.42 43.91 48.24 43.91 48.24 13.57 55.42 13.57 55.42 18.78Z" class="MsftOfcThm_Background1_Fill_v2" stroke-width="0" fill="#000000"></path><path d="M108.04 43.92 100.86 43.92 100.86 18.96 91.58 18.96 91.58 43.92 84.4 43.92 84.4 18.96 79.97 18.96 79.97 13.57 84.4 13.57 84.4 11.77C84.4 5 88.35 0.93 95.12 0.93 99.01 0.93 102.42 1.95 105.24 3.26L105.24 9.31C102.43 7.99 99.37 6.92 96.02 6.92 93.27 6.92 91.59 8.06 91.59 11.83L91.59 13.57 108.05 13.57 108.05 43.92Z" class="MsftOfcThm_Background1_Fill_v2" stroke-width="0" fill="#000000"></path><path d="M122.3 18.77C123.92 15.24 127.21 13.2 131.64 13.2 137.63 13.2 141.46 16.97 141.46 23.74L141.46 43.92 134.28 43.92 134.28 25.24C134.28 21.17 132.12 19.19 128.95 19.19 125.48 19.19 122.31 21.94 122.31 27.63L122.31 43.91 115.13 43.91 115.13 13.57 122.31 13.57 122.31 18.78Z" class="MsftOfcThm_Background1_Fill_v2" stroke-width="0" fill="#000000"></path><path d="M152.85 0.16C155.24 0.16 157.16 2.08 157.16 4.47 157.16 6.86 155.24 8.84 152.85 8.84 150.46 8.84 148.54 6.92 148.54 4.47 148.54 2.02 150.46 0.16 152.85 0.16ZM149.25 13.57 156.43 13.57 156.43 43.92 149.25 43.92 149.25 13.57Z" class="MsftOfcThm_Background1_Fill_v2" stroke-width="0" fill="#000000"></path><path d="M173.26 34.4C173.26 36.97 174.76 38.29 177.09 38.29 178.47 38.29 180.08 37.81 181.28 37.03L181.28 43.2C179.78 43.92 177.39 44.22 175.89 44.22 169.18 44.22 166.07 40.69 166.07 34.28L166.07 18.95 161.52 18.95 161.52 13.56 166.07 13.56 166.07 6.26 173.25 6.26 173.25 13.56 180.79 13.56 180.79 18.95 173.25 18.95 173.25 34.4Z" class="MsftOfcThm_Background1_Fill_v2" stroke-width="0" fill="#000000"></path><path d="M191.11 0.16C193.5 0.16 195.42 2.08 195.42 4.47 195.42 6.86 193.5 8.84 191.11 8.84 188.72 8.84 186.8 6.92 186.8 4.47 186.8 2.02 188.72 0.16 191.11 0.16ZM187.52 13.57 194.7 13.57 194.7 43.92 187.52 43.92 187.52 13.57Z" class="MsftOfcThm_Background1_Fill_v2" stroke-width="0" fill="#000000"></path><path d="M219.67 7.52C218.59 7.1 217.64 6.92 216.68 6.92 214.11 6.92 212.31 8.06 212.31 11.83L212.31 13.57 218.36 13.57 218.36 18.96 212.31 18.96 212.31 43.92 205.13 43.92 205.13 18.96 200.7 18.96 200.7 13.57 205.13 13.57 205.13 11.77C205.13 5 209.08 0.93 215.73 0.93 216.99 0.93 218.36 1.05 219.68 1.47L219.68 7.52Z" class="MsftOfcThm_Background1_Fill_v2" stroke-width="0" fill="#000000"></path></g><g><rect x="0" y="13.58" width="10.08" height="10.08" class="MsftOfcThm_Background1_Fill_v2" stroke-width="0" fill="#000000"></rect><path d="M10.08 23.66 0 33.74 0 43.82 10.08 43.82 10.08 33.74 20.16 33.74 20.16 23.66 10.08 23.66Z" class="MsftOfcThm_Background1_Fill_v2" stroke-width="0" fill="#000000"></path></g></g><g><path d="M36.43 0C38.83 0 40.74 1.92 40.74 4.31 40.74 6.7 38.82 8.68 36.43 8.68 34.03 8.68 32.12 6.76 32.12 4.31 32.12 1.86 34.03 0 36.43 0ZM32.84 13.42 40.03 13.42C40.03 13.42 40.03 43.78 40.03 43.78L32.84 43.78C32.84 43.78 32.84 13.42 32.84 13.42Z" class="MsftOfcThm_Background1_Fill_v2" stroke-width="0" fill="#000000"></path><path d="M55.29 18.63C56.91 15.1 60.2 13.06 64.63 13.06 70.62 13.06 74.45 16.83 74.45 23.6L74.45 43.78 67.26 43.78C67.26 43.78 67.26 25.09 67.26 25.09 67.26 21.02 65.1 19.04 61.93 19.04 58.46 19.04 55.28 21.8 55.28 27.48L55.28 43.77 48.09 43.77C48.09 43.77 48.09 13.41 48.09 13.41L55.28 13.41C55.28 13.41 55.28 18.62 55.28 18.62Z" class="MsftOfcThm_Background1_Fill_v2" stroke-width="0" fill="#000000"></path><path d="M107.92 43.78 100.73 43.78C100.73 43.78 100.73 18.81 100.73 18.81L91.45 18.81 91.45 43.78 84.26 43.78C84.26 43.78 84.26 18.81 84.26 18.81L79.83 18.81C79.83 18.81 79.83 13.42 79.83 13.42L84.26 13.42 84.26 11.62C84.26 4.85 88.21 0.78 94.98 0.78 98.87 0.78 102.28 1.8 105.1 3.12L105.1 9.17C102.29 7.85 99.23 6.77 95.88 6.77 93.13 6.77 91.45 7.91 91.45 11.68L91.45 13.42 107.92 13.42C107.92 13.42 107.92 43.78 107.92 43.78Z" class="MsftOfcThm_Background1_Fill_v2" stroke-width="0" fill="#000000"></path><path d="M122.18 18.63C123.8 15.1 127.09 13.06 131.52 13.06 137.51 13.06 141.34 16.83 141.34 23.6L141.34 43.78 134.15 43.78C134.15 43.78 134.15 25.09 134.15 25.09 134.15 21.02 131.99 19.04 128.82 19.04 125.35 19.04 122.17 21.8 122.17 27.48L122.17 43.77 114.98 43.77C114.98 43.77 114.98 13.41 114.98 13.41L122.17 13.41C122.17 13.41 122.17 18.62 122.17 18.62Z" class="MsftOfcThm_Background1_Fill_v2" stroke-width="0" fill="#000000"></path><path d="M152.72 0C155.12 0 157.03 1.92 157.03 4.31 157.03 6.7 155.11 8.68 152.72 8.68 150.32 8.68 148.41 6.76 148.41 4.31 148.41 1.86 150.32 0 152.72 0ZM149.13 13.42 156.32 13.42C156.32 13.42 156.32 43.78 156.32 43.78L149.13 43.78C149.13 43.78 149.13 13.42 149.13 13.42Z" class="MsftOfcThm_Background1_Fill_v2" stroke-width="0" fill="#000000"></path><path d="M173.14 34.26C173.14 36.84 174.64 38.15 176.97 38.15 178.35 38.15 179.96 37.67 181.16 36.89L181.16 43.06C179.66 43.78 177.27 44.08 175.77 44.08 169.06 44.08 165.95 40.55 165.95 34.14L165.95 18.81 161.4 18.81C161.4 18.81 161.4 13.42 161.4 13.42L165.95 13.42 165.95 6.11 173.14 6.11C173.14 6.11 173.14 13.42 173.14 13.42L180.68 13.42C180.68 13.42 180.68 18.81 180.68 18.81L173.14 18.81 173.14 34.26Z" class="MsftOfcThm_Background1_Fill_v2" stroke-width="0" fill="#000000"></path><path d="M190.98 0C193.38 0 195.29 1.92 195.29 4.31 195.29 6.7 193.37 8.68 190.98 8.68 188.58 8.68 186.67 6.76 186.67 4.31 186.67 1.86 188.59 0 190.98 0ZM187.39 13.42 194.58 13.42C194.58 13.42 194.58 43.78 194.58 43.78L187.39 43.78C187.39 43.78 187.39 13.42 187.39 13.42Z" class="MsftOfcThm_Background1_Fill_v2" stroke-width="0" fill="#000000"></path><path d="M219.55 7.37C218.47 6.95 217.51 6.77 216.56 6.77 213.99 6.77 212.19 7.91 212.19 11.68L212.19 13.42 218.24 13.42C218.24 13.42 218.24 18.81 218.24 18.81L212.19 18.81 212.19 43.78 205 43.78C205 43.78 205 18.81 205 18.81L200.57 18.81C200.57 18.81 200.57 13.42 200.57 13.42L205 13.42 205 11.62C205 4.85 208.95 0.78 215.6 0.78 216.86 0.78 218.23 0.9 219.55 1.32L219.55 7.37Z" class="MsftOfcThm_Background1_Fill_v2" stroke-width="0" fill="#000000"></path></g></svg>